<svg width="41" height="36" viewBox="0 0 41 36" fill="none" xmlns="http://www.w3.org/2000/svg">
<path d="M20.5 13.6663C24.2478 13.6663 27.2969 10.601 27.2969 6.83316C27.2969 3.06534 24.2478 0 20.5 0C16.7522 0 13.7031 3.06534 13.7031 6.83316C13.7031 10.601 16.7522 13.6663 20.5 13.6663ZM20.5 2.35626C22.9555 2.35626 24.9531 4.36458 24.9531 6.83316C24.9531 9.30174 22.9555 11.3101 20.5 11.3101C18.0445 11.3101 16.0469 9.30174 16.0469 6.83316C16.0469 4.36458 18.0445 2.35626 20.5 2.35626Z" fill="#005541"/>
<path d="M34.25 13.6664C36.6193 13.6664 38.5469 11.7286 38.5469 9.34665C38.5469 6.96472 36.6193 5.02686 34.25 5.02686C31.8807 5.02686 29.9531 6.96472 29.9531 9.34665C29.9531 11.7286 31.8807 13.6664 34.25 13.6664ZM34.25 7.38311C35.3269 7.38311 36.2031 8.26395 36.2031 9.34665C36.2031 10.4293 35.3269 11.3102 34.25 11.3102C33.173 11.3102 32.2969 10.4293 32.2969 9.34665C32.2969 8.26395 33.173 7.38311 34.25 7.38311Z" fill="#005541"/>
<path d="M35.1952 16.3367H33.3827C31.2469 16.3367 29.4031 17.6053 28.563 19.4275C26.8332 17.5291 24.3486 16.3367 21.5921 16.3367H19.4079C16.6514 16.3367 14.1668 17.5291 12.437 19.4275C11.5968 17.6053 9.75303 16.3367 7.61717 16.3367H5.80468C2.87968 16.3367 0.5 18.7146 0.5 21.6375V30.2151C0.5 31.484 1.53078 32.5164 2.79781 32.5164H9.96397C10.0841 33.9223 11.2601 35.0297 12.6892 35.0297H28.3108C29.7399 35.0297 30.9158 33.9223 31.036 32.5164H38.1203C39.4325 32.5164 40.5 31.4474 40.5 30.1334V21.6375C40.4999 18.7146 38.1202 16.3367 35.1952 16.3367ZM2.84375 21.6375C2.84375 20.0139 4.17202 18.6929 5.80468 18.6929H7.61717C9.24983 18.6929 10.5781 20.0139 10.5781 21.6375V22.4442C9.79006 24.507 9.95311 25.7433 9.95311 30.1601H2.84375V21.6375ZM28.7031 32.2791C28.7031 32.4966 28.5271 32.6735 28.3108 32.6735H12.6891C12.4728 32.6735 12.2969 32.4965 12.2969 32.2791V25.842C12.2969 21.9 15.4868 18.6929 19.4079 18.6929H21.592C25.5131 18.6929 28.7031 21.9 28.7031 25.8419V32.2791ZM38.1562 30.1334C38.1562 30.174 38.5931 30.1601 31.0468 30.1601C31.0468 25.7106 31.2086 24.5036 30.4218 22.4442V21.6375C30.4218 20.0139 31.7501 18.6929 33.3827 18.6929H35.1952C36.8279 18.6929 38.1562 20.0139 38.1562 21.6375V30.1334Z" fill="#005541"/>
<path d="M6.74999 13.6664C9.11928 13.6664 11.0469 11.7286 11.0469 9.34665C11.0469 6.96472 9.11928 5.02686 6.74999 5.02686C4.3807 5.02686 2.45312 6.96472 2.45312 9.34665C2.45312 11.7286 4.3807 13.6664 6.74999 13.6664ZM6.74999 7.38311C7.82694 7.38311 8.70311 8.26395 8.70311 9.34665C8.70311 10.4293 7.82694 11.3102 6.74999 11.3102C5.67304 11.3102 4.79687 10.4293 4.79687 9.34665C4.79687 8.26395 5.67304 7.38311 6.74999 7.38311Z" fill="#005541"/>
</svg>
