<svg width="35" height="35" viewBox="0 0 35 35" fill="none" xmlns="http://www.w3.org/2000/svg">
<path d="M21.2666 6.74555C22.605 5.6587 22.908 4.49685 22.9264 3.71351C22.9714 1.80784 21.4746 0.413293 21.3037 0.260645C20.8805 -0.117797 20.2322 -0.0796517 19.8557 0.34589C19.4793 0.771431 19.5172 1.42311 19.9405 1.80162C19.9501 1.81023 20.8984 2.70219 20.8757 3.66463C20.8636 4.1774 20.5698 4.66043 19.9776 5.14135C18.6393 6.2282 18.3363 7.39005 18.3179 8.17339C18.2728 10.0791 19.7697 11.4736 19.9405 11.6263C20.1364 11.8015 20.3809 11.8877 20.6244 11.8877C20.907 11.8877 21.1883 11.7715 21.3905 11.5429C21.767 11.1173 21.7311 10.4674 21.3078 10.089C21.0386 9.84288 20.3452 9.02645 20.3687 8.21454C20.3836 7.70464 20.6773 7.22407 21.2666 6.74555Z" fill="#005541"/>
<path d="M14.759 6.74555C16.0973 5.6587 16.4003 4.49685 16.4187 3.71351C16.4637 1.80784 14.9669 0.413293 14.796 0.260645C14.3729 -0.117797 13.7245 -0.0796517 13.348 0.34589C12.9716 0.771431 13.0095 1.42311 13.4328 1.80162C13.4424 1.81023 14.3907 2.70219 14.368 3.66463C14.3559 4.1774 14.0621 4.66043 13.4699 5.14135C12.1316 6.2282 11.8286 7.39005 11.8102 8.17339C11.7652 10.0791 13.262 11.4736 13.4328 11.6263C13.6287 11.8015 13.8732 11.8877 14.1167 11.8877C14.3993 11.8877 14.6806 11.7715 14.8828 11.5429C15.2593 11.1173 15.2234 10.4674 14.8001 10.089C14.5309 9.84288 13.8375 9.02645 13.8611 8.21454C13.8759 7.70464 14.1696 7.22407 14.759 6.74555Z" fill="#005541"/>
<path d="M29.4423 16.8264H28.2284V16.0702C28.2284 15.5008 27.7692 15.0391 27.2027 15.0391H1.02567C0.459251 15.0391 0 15.5007 0 16.0702V21.5121C0 26.3207 2.64746 30.549 6.62215 32.9376H1.02628C0.459863 32.9376 0.000611977 33.3992 0.000611977 33.9687C0.000611977 34.5382 0.459727 34.9998 1.02628 34.9998H27.2028C27.7692 34.9998 28.2285 34.5382 28.2285 33.9687C28.2285 33.3992 27.7693 32.9376 27.2028 32.9376H21.6063C23.8665 31.5793 25.6975 29.6263 26.8564 27.3096H29.4423C32.3172 27.3096 34.6562 24.9582 34.6562 22.068C34.6562 19.1777 32.3172 16.8264 29.4423 16.8264ZM26.1771 21.5121C26.1771 27.8121 20.7657 32.9376 14.1142 32.9376C7.46273 32.9376 2.05133 27.8121 2.05133 21.5121V17.1013H26.1771V21.5121H26.1771ZM29.4423 25.2474H27.6773C28.0358 24.0608 28.2284 22.8076 28.2284 21.5121V18.8885H29.4423C31.1861 18.8885 32.6049 20.3148 32.6049 22.068C32.6049 23.8211 31.1861 25.2474 29.4423 25.2474Z" fill="#005541"/>
<path d="M8.25138 6.74553C9.5897 5.65868 9.89269 4.49684 9.91112 3.7135C9.95614 1.80783 8.45932 0.413291 8.28844 0.260644C7.86523 -0.117796 7.21695 -0.0796514 6.84045 0.345889C6.46402 0.77136 6.50196 1.4231 6.92524 1.80161C6.93483 1.81023 7.88311 2.70218 7.8604 3.66462C7.8483 4.17739 7.55455 4.66042 6.96237 5.14133C5.62405 6.22819 5.32105 7.39003 5.30263 8.17337C5.25768 10.079 6.7545 11.4735 6.92531 11.6262C7.12073 11.8009 7.36409 11.8869 7.60657 11.8869C7.88923 11.8869 8.17067 11.7701 8.37337 11.541C8.7498 11.1154 8.71186 10.4638 8.28858 10.0853C8.27899 10.0766 7.3307 9.18468 7.35342 8.22224C7.36538 7.70948 7.65913 7.22638 8.25138 6.74553Z" fill="#005541"/>
</svg>
