<svg width="44" height="44" viewBox="0 0 44 44" fill="none" xmlns="http://www.w3.org/2000/svg">
<g clip-path="url(#clip0_26884_59)">
<path d="M38.8436 0H5.15613C2.31297 0 -0.00012207 2.31309 -0.00012207 5.15625V38.8438C-0.00012207 41.6869 2.31297 44 5.15613 44H38.8436C41.6868 44 43.9999 41.6869 43.9999 38.8438V5.15625C43.9999 2.31309 41.6868 0 38.8436 0ZM40.5624 38.8438C40.5624 39.7915 39.7913 40.5625 38.8436 40.5625H29.0468V26.5547H34.3568L35.2343 21.2266H29.0468V17.5312C29.0468 16.0725 30.1661 14.9531 31.6249 14.9531H35.1483V9.625H31.6249C27.2487 9.625 23.7205 13.1699 23.7205 17.5462V21.2266H18.5624V26.5547H23.7205V40.5625H5.15613C4.20841 40.5625 3.43738 39.7915 3.43738 38.8438V5.15625C3.43738 4.20853 4.20841 3.4375 5.15613 3.4375H38.8436C39.7913 3.4375 40.5624 4.20853 40.5624 5.15625V38.8438Z" fill="#005541"/>
</g>
<defs>
<clipPath id="clip0_26884_59">
<rect width="44" height="44" fill="white"/>
</clipPath>
</defs>
</svg>
