<svg width="35" height="35" viewBox="0 0 35 35" fill="none" xmlns="http://www.w3.org/2000/svg">
<path d="M31.1964 0H12.0826C10.0124 0 8.32813 1.69325 8.32813 3.77451V12.3529H3.75449C1.68426 12.3529 0 14.0462 0 16.1275V27.1078C0 29.1891 1.68426 30.8824 3.75449 30.8824H10.0328L12.4594 34.5416C12.6493 34.828 12.969 35 13.3114 35C13.6537 35 13.9734 34.828 14.1634 34.5416L16.5899 30.8824H22.8682C24.9385 30.8824 26.6227 29.1891 26.6227 27.1078V18.5294H31.1964C33.2666 18.5294 34.9508 16.8362 34.9508 14.7549V3.77451C34.9508 1.69325 33.2666 0 31.1964 0ZM24.5748 27.1078C24.5748 28.0539 23.8092 28.8235 22.8682 28.8235H16.0419C15.6996 28.8235 15.3798 28.9956 15.1899 29.282L13.3114 32.1148L11.4328 29.282C11.2429 28.9956 10.9232 28.8235 10.5808 28.8235H3.75449C2.81347 28.8235 2.0479 28.0539 2.0479 27.1078V16.1275C2.0479 15.1814 2.81347 14.4118 3.75449 14.4118H8.32813V14.7549C8.32813 15.3726 8.47742 15.9554 8.7401 16.4706H5.11975C4.55426 16.4706 4.0958 16.9315 4.0958 17.5C4.0958 18.0685 4.55426 18.5294 5.11975 18.5294H18.361L19.7263 20.5882H5.11975C4.55426 20.5882 4.0958 21.0491 4.0958 21.6176C4.0958 22.1862 4.55426 22.6471 5.11975 22.6471H21.6395C21.9819 22.6471 22.3016 22.475 22.4914 22.1886L24.5748 19.0469V27.1078ZM32.9029 14.7549C32.9029 15.7009 32.1374 16.4706 31.1964 16.4706H24.37C24.0276 16.4706 23.7079 16.6426 23.5181 16.929L21.6395 19.7618L19.7609 16.929C19.571 16.6426 19.2513 16.4706 18.909 16.4706H12.0826C11.1416 16.4706 10.376 15.7009 10.376 14.7549V3.77451C10.376 2.82848 11.1416 2.05882 12.0826 2.05882H31.1964C32.1374 2.05882 32.9029 2.82848 32.9029 3.77451V14.7549Z" fill="#005541"/>
<path d="M21.5029 24.7058H5.11965C4.55416 24.7058 4.0957 25.1667 4.0957 25.7353C4.0957 26.3038 4.55416 26.7647 5.11965 26.7647H21.5029C22.0684 26.7647 22.5268 26.3038 22.5268 25.7353C22.5268 25.1667 22.0684 24.7058 21.5029 24.7058Z" fill="#005541"/>
<path d="M26.5652 7.16757L23.7961 6.76301L22.5577 4.2403C22.3852 3.88893 22.0293 3.6665 21.6395 3.6665C21.2497 3.6665 20.8938 3.88893 20.7213 4.2403L19.4829 6.76301L16.7138 7.16757C16.3281 7.22385 16.0076 7.49548 15.8872 7.8682C15.7667 8.24085 15.8672 8.64994 16.1463 8.92342L18.15 10.8869L17.6769 13.6596C17.6111 14.0458 17.769 14.4361 18.0843 14.6665C18.3996 14.8967 18.8175 14.9272 19.1627 14.7449L21.6395 13.4357L24.1162 14.7449C24.2661 14.824 24.4296 14.8631 24.5926 14.8631C24.8049 14.8631 25.0163 14.7968 25.1946 14.6666C25.5099 14.4363 25.6678 14.0459 25.602 13.6597L25.1289 10.887L27.1326 8.92349C27.4118 8.65001 27.5123 8.24092 27.3918 7.86827C27.2714 7.49555 26.9509 7.22392 26.5652 7.16757ZM23.314 9.79047C23.0726 10.027 22.9625 10.3677 23.0195 10.7017L23.2328 11.9519L22.116 11.3615C21.9668 11.2827 21.8032 11.2433 21.6396 11.2433C21.4759 11.2433 21.3122 11.2827 21.1631 11.3615L20.0463 11.9519L20.2596 10.7017C20.3166 10.3677 20.2065 10.027 19.9651 9.79047L19.0617 8.9051L20.3103 8.72269C20.6439 8.67396 20.9321 8.46341 21.0813 8.15959L21.6397 7.02208L22.1981 8.15959C22.3472 8.46341 22.6355 8.67396 22.9691 8.72269L24.2177 8.9051L23.314 9.79047Z" fill="#005541"/>
</svg>
