<svg width="43" height="35" viewBox="0 0 43 35" fill="none" xmlns="http://www.w3.org/2000/svg">
<path d="M38.9771 5.03224H30.0646V3.42896C30.0646 1.53826 28.5347 0 26.6539 0H15.6231C13.7426 0 12.2125 1.53815 12.2125 3.42896V5.03224H3.3001C1.48042 5.03224 0 6.52043 0 8.3497V31.6824C0 33.5117 1.48042 35 3.3001 35H38.9769C40.7966 35 42.277 33.5117 42.277 31.6824V8.3497C42.2772 6.52055 40.7969 5.03224 38.9771 5.03224ZM15.0945 3.42896C15.0945 3.13586 15.3318 2.89735 15.6232 2.89735H26.6541C26.9455 2.89735 27.1827 3.13586 27.1827 3.42896V5.03224H15.0945V3.42896ZM3.30021 7.92959H38.9771C39.2076 7.92959 39.3952 8.11803 39.3952 8.3497V15.9521C34.9295 17.6175 28.1936 18.6012 21.1264 18.6012C14.0748 18.6012 7.34813 17.6209 2.88198 15.961V8.3497C2.8821 8.11803 3.06966 7.92959 3.30021 7.92959ZM38.9771 32.1026H3.30021C3.06966 32.1026 2.8821 31.9142 2.8821 31.6824V19.0306C6.96967 20.3862 12.3439 21.2335 18.2006 21.4458C18.2003 21.4626 18.1982 21.4789 18.1982 21.4959V22.1348C18.1982 23.3326 19.1675 24.307 20.359 24.307H21.9184C23.1099 24.307 24.0792 23.3326 24.0792 22.1348V21.4959C24.0792 21.4789 24.0769 21.4622 24.0768 21.4452C29.9372 21.231 35.3106 20.3812 39.3954 19.023V31.6825C39.3952 31.9142 39.2076 32.1026 38.9771 32.1026Z" fill="#005541"/>
</svg>
